<?xml version="1.0" encoding="UTF-8"?>
<svg id="_Слой_2" data-name="Слой 2" xmlns="http://www.w3.org/2000/svg" viewBox="0 0 463 509.5">
  <defs>
    <style>
      .cls-1, .cls-2 {
        fill: none;
        stroke: #000;
        stroke-miterlimit: 10;
        stroke-width: 4px;
      }

      .cls-3 {
        opacity: .09;
        stroke-width: 0px;
      }

      .cls-2 {
        opacity: .42;
      }
    </style>
  </defs>
  <g id="_чаша_для_смешивания" data-name="чаша для смешивания">
    <line class="cls-1" x1="443.26" y1="29" x2="438.76" y2="29"/>
    <path class="cls-1" d="m22.94,29h-3.1"/>
    <path class="cls-1" d="m441,29v440.77c0,20.84-16.89,37.73-37.73,37.73H58.73c-20.84,0-37.73-16.89-37.73-37.73V29h-1.15s-4.35,0-4.35,0c-7.46,0-13.5-6.04-13.5-13.5h0c0-7.46,6.04-13.5,13.5-13.5h432c7.46,0,13.5,6.04,13.5,13.5h0c0,7.46-6.04,13.5-13.5,13.5h-6.5Z"/>
    <line class="cls-2" x1="348.5" y1="58.5" x2="381.98" y2="58.5"/>
    <line class="cls-2" x1="348.15" y1="90.92" x2="381.63" y2="90.92"/>
    <line class="cls-2" x1="348.15" y1="125.92" x2="381.63" y2="125.92"/>
    <line class="cls-2" x1="348.15" y1="194.71" x2="381.63" y2="194.71"/>
    <line class="cls-2" x1="348.15" y1="229.27" x2="381.63" y2="229.27"/>
    <line class="cls-2" x1="314.5" y1="160.27" x2="382.5" y2="160.27"/>
    <path class="cls-3" d="m21.46,455.71c-.66.13-1.17,2.74,0,15.39,0,19.91,16.14,36.04,36.04,36.04h349.91c4.82-.49,12.83-2.12,20.04-8,11.18-9.12,13.18-22.5,14-28,.51-3.43.22-3.8,0-17,0,0-.18-10.85,0-31,.14-16.18.7-20.6,1-33,.55-23.04-.63-39.65-1-47-1.12-21.93-1.59-88.45,0-257v-44c-.33-3.24-.84-6.21-1.01-8.5-.26-3.51.68-4.21,1.01-4.5,1.51-1.27,3.59.25,7,0,0,0,3.76-.28,7-3,4.07-3.42,6.3-10.79,3-17-2.99-5.62-9.61-8.56-16-7-2.19-.11-5.69-.21-10,0-6.44.31-7.1.94-12,1-7.22.08-11.55-1.23-12,0-.29.78,1.4,1.54,4,5,1.23,1.63,2.3,3.06,3,5,1.6,4.44.17,8.54,0,9-1.53,4.18-4.8,6.28-6,7-4.24,2.55-8.09,2.19-16,2-4.19-.1-10.34-.18-18,0h-5c-1.33,0-2.67.05-4,0-1.37-.05-1.94-.12-3,0-1.31.15-2.25.27-3,1-.76.74-.95,1.72-1,2-.1.52-.03.75,0,2,.03,1.12,0,1.9,0,2,0,.99,3.05,252.65,1,364,0,0-1.01,54.75-25.23,69.03-.75.44-3.66,2.1-7.77,3.97-17.27,7.86-32.02,8.64-38,9-28.24,1.72-42.37,2.58-230-2-6.16-.15-21.3-.38-29.82-10.42-5.83-6.87-6.81-16.27-8.18-16.01Z"/>
    <path class="cls-3" d="m412.46,506.14c-5.6.72-9.26,1.12-17,1-9.33-.14-18.67.14-28,0-40.66-.6-81.33,0-122,0H116.46c-14.14,1.4-24.76.94-46,0-21.24-.94-26.85-2.5-32-6-18.29-12.43-18.99-41.3-17-42,1.17-.41,2.66,9.11,12,16,3.7,2.72,8.93,5.26,23,7,14.22,1.75,25.2,1.18,29,1,1.76-.08-3.26.17,46,1,42.32.72,63.49,1.08,78,1,18.46-.1,25.54-.4,42,0,15.86.39,19.27.91,33,1,20.99.14,31.32-.86,42-2,6.3-.67,24.48-3.44,39-18,2.55-2.56,9.88-10.07,14-22,2.54-7.34,2.9-13.57,3-16.91.49-16.59.53-167.19,0-373.01.22-5.42.13-9.88,0-13.09-.21-5.18-.56-7.44,1-9,1.56-1.56,3.82-1.21,9-1,3.21.13,7.66.22,13.09,0,3.73-.07,6.77-.04,8.91,0,2.75.05,3.91.13,6,0,2.03-.12,4.3-.26,7-1,3.18-.87,5.8-1.59,8-4,2.49-2.72,2.91-5.94,3-7,.06-.73.2-3.09-1-6-2.79-6.77-9.52-8.48-9-10,.73-2.14,14.03,1.2,19,0,.46-.11,2.11-.57,4,0,.56.17,1.2.45,2,1,5.67,3.94,7,9,7,9,.4,1.52,1.23,5.66-1,10-1.87,3.63-4.83,5.39-6,6-1.12.29-2.85.7-5,1-3.73.53-4.83.21-6,1-1.95,1.32-1.99,4.33-2,8-.01,6.93-.01,11.73,0,16v421c-.15,2.56-1.02,12.07-8.76,20.24-7.52,7.93-16.64,9.43-19.24,9.76Z"/>
  </g>
</svg>