<?xml version="1.0" encoding="UTF-8"?>
<svg id="_Слой_2" data-name="Слой 2" xmlns="http://www.w3.org/2000/svg" viewBox="0 0 155.41 248.56">
  <defs>
    <style>
      .cls-1 {
        fill: none;
      }

      .cls-1, .cls-2 {
        stroke: #000;
        stroke-miterlimit: 10;
      }

      .cls-3 {
        opacity: .14;
      }

      .cls-3, .cls-4, .cls-5 {
        stroke-width: 0px;
      }

      .cls-2 {
        opacity: .4;
      }

      .cls-4 {
        opacity: .11;
      }

      .cls-5 {
        opacity: .15;
      }

      .cls-6 {
        opacity: .46;
      }
    </style>
  </defs>
  <g id="_Бюретка" data-name="Бюретка">
    <line class="cls-2" x1="62.52" y1="26.61" x2="39.03" y2="26.61"/>
    <line class="cls-2" x1="62.14" y1="50.3" x2="38.65" y2="50.3"/>
    <line class="cls-2" x1="62.14" y1="74.3" x2="38.65" y2="74.3"/>
    <line class="cls-2" x1="62.14" y1="100.3" x2="38.65" y2="100.3"/>
    <line class="cls-2" x1="62.14" y1="124.3" x2="38.65" y2="124.3"/>
    <polyline class="cls-1" points="63 31.39 110.04 31.39 154.91 31.39 154.91 70.52 63 70.52"/>
    <path class="cls-1" d="m123.5.5c-1.37,0-2.42,1.86-3,3-3.25,6.37-9.18,24.05-10.46,27.89h27.91c-1.14-3-8.11-21.35-11.46-27.89-.52-1.02-1.59-3-3-3Z"/>
    <path class="cls-1" d="m124.22,101.39c1.37,0,2.42-1.86,3-3,3.25-6.37,9.18-24.05,10.46-27.89h-27.91c1.14,3,8.11,21.35,11.46,27.89.52,1.02,1.59,3,3,3Z"/>
    <path class="cls-1" d="m15,70.5H3.81c-1.83,0-3.31-1.43-3.31-3.2v-33.09c0-1.77,1.48-3.2,3.31-3.2h11.19"/>
    <path class="cls-1" d="m15.5,167.5c6,25.33,12,50.67,18,76,.07.34.63,2.81,3,4,2.21,1.11,4.33.26,5,0,2.69-1.07,3.81-3.58,4-4,0,0,.05-.11.1-.22.54-1.33,3.95-15.82,16.9-75.78v-39c0-15.33,0-30.67,0-46,0-11.87,0-30.93,0-31,0-11.97.02-29.25.07-50.5-15.69.17-31.38.33-47.07.5v141c.04,15.32.04,25,0,25,0,0,0-1.11,0-3.32,0-.16,0-3.16,0-3.31"/>
    <circle class="cls-4" cx="124.5" cy="50.5" r="15.5"/>
    <g class="cls-6">
      <rect class="cls-3" x="39" y="1" width="24" height="167"/>
      <path class="cls-5" d="m27,217.06c4-16.35,8-32.71,12-49.06h21c1.14-.16,1.59-.3,2,0,1.34.98-.44,4.67-2,11-.72,2.93-.24,1.72-2,11,0,0-.93,4.91-2,10-1.27,6.08-3.42,16.31-7,29-1.33,4.71-3.2,10.96-5.69,18.29-.68.3-1.79.74-3.21.71-1.53-.03-2.87-.67-4.73-1.49-2.13-3.25-7.23-25.4-8.37-29.45Z"/>
      <rect class="cls-3" x="44.48" y="1" width="17.52" height="152.99"/>
      <path class="cls-5" d="m44,168c.3-3.13.64-7.98.51-14.01,5.99,0,11.99,0,17.98.01.49,3.62.85,8.84,0,15-.64,4.62-1.71,7.96-2.03,9-1.96,6.27-5.49,20.56-12.19,53-1.17,3.77-1.74,6.84-2.03,9-.23,1.65-.28,2.69-1.02,4-.22.39-2.41,4.2-6.09,4-2.09-.11-3.53-1.45-4.06-2-.48-1.19-1.02-2.64-1.55-4.31-.82-2.6-.74-3.02-1.5-5.69-1.33-4.62-1.99-4.84-2.02-7-.03-2.3.61-4.03,1-5,2.88-7.24,11.02-35.25,13-56Z"/>
    </g>
  </g>
</svg>