<?xml version="1.0" encoding="UTF-8"?>
<svg id="_Слой_2" data-name="Слой 2" xmlns="http://www.w3.org/2000/svg" viewBox="0 0 139 164.86">
  <defs>
    <style>
      .cls-1 {
        fill: none;
      }

      .cls-1, .cls-2 {
        stroke: #000;
        stroke-miterlimit: 10;
      }

      .cls-3, .cls-4 {
        stroke-width: 0px;
      }

      .cls-4 {
        opacity: .15;
      }
    </style>
  </defs>
  <g id="pH_тестер" data-name="pH тестер">
    <rect class="cls-1" x=".5" y=".5" width="138" height="32" rx="5.76" ry="5.76"/>
    <rect class="cls-1" x="10.5" y="32.5" width="12.5" height="119.5"/>
    <polygon class="cls-2" points="16.72 163.8 10.94 153 22.5 153 16.72 163.8"/>
    <line class="cls-1" x1="10.5" y1="134.15" x2="23" y2="134.15"/>
    <path class="cls-3" d="m11.5,147.27c1.78.09,3.38-.86,5.13-.96,1.9-.11,3.78-.32,5.64-.73.79-.17,1.25-1.09,1.05-1.85-.22-.82-1.05-1.22-1.85-1.05-1.7.37-3.31.51-5.04.63-.91.06-1.78.23-2.65.5-.82.25-1.49.49-2.28.45s-1.5.72-1.5,1.5c0,.85.69,1.46,1.5,1.5h0Z"/>
    <path class="cls-3" d="m22.86,143.8c.36-.62.4-1.29.38-1.99s-.02-1.36-.03-2.03c-.02-1.36-.05-2.71-.07-4.07-.02-1.05-.94-1.6-1.9-1.45-1.51.25-3.4-.08-5.02-.22s-3.49-.45-5.02.49c-.69.42-.95,1.34-.54,2.05s1.36.96,2.05.54c.09-.06.18-.11.27-.16-.12.05-.09.05.08-.01.05-.01.47-.09.22-.06.37-.05.76-.03,1.13,0,.79.05,1.58.13,2.38.2,1.76.15,3.49.35,5.25.06l-1.9-1.45c.02,1.23.04,2.45.06,3.68,0,.58.02,1.16.03,1.74,0,.32.01.65.02.97,0,.09,0,.19,0,.28.03-.14.03-.16,0-.05-.03.1-.02.09.02-.05-.41.7-.16,1.64.54,2.05s1.64.16,2.05-.54h0Z"/>
    <path class="cls-3" d="m11.14,138.38c-.34-.23-.52-.52-.53-.88v.16c0,.18.02.37.03.55.01.31.02.63.03.94.02.65.03,1.31.03,1.96,0,1.31-.01,2.62-.06,3.93-.03.79.71,1.54,1.5,1.5.84-.04,1.47-.66,1.5-1.5.05-1.52.07-3.04.05-4.56,0-.73-.03-1.47-.05-2.2-.03-.89,0-2.07-.99-2.49-.72-.31-1.64-.24-2.05.54-.34.65-.23,1.72.54,2.05h0Z"/>
    <path class="cls-3" d="m11.98,148.1s0,0,0,0l-.3-.23s.04.04.06.06l-.23-.3s.03.05.04.08l-.15-.36s.02.06.03.1l-.05-.4s0,.06,0,.09l.05-.4s0,.04-.01.06c-.06.2-.07.4-.03.6,0,.2.07.39.18.56.09.17.22.32.39.42.14.13.31.22.51.27l.4.05c.27,0,.52-.07.76-.2l.3-.23c.19-.19.31-.41.39-.66,0-.02.01-.04.01-.06.02-.14.05-.28.06-.42,0,0,0-.02,0-.03s0-.02,0-.03c0,0,0-.01,0-.02-.02-.13-.03-.28-.05-.41,0-.02,0-.04-.01-.06,0,0,0-.02,0-.03-.03-.06-.05-.12-.08-.18-.02-.06-.05-.12-.08-.18,0,0,0,0,0-.01,0-.02-.02-.03-.03-.05-.08-.12-.17-.24-.27-.34,0,0-.01-.01-.02-.02,0,0,0,0-.01-.01l-.3-.23s0,0,0,0c-.17-.11-.36-.17-.56-.18-.2-.04-.4-.04-.6.03-.2.05-.37.14-.51.27-.16.11-.29.25-.39.42l-.15.36c-.07.27-.07.53,0,.8l.15.36c.13.23.31.4.54.54h0Z"/>
    <path class="cls-3" d="m10.93,146.81l.17,1.81.08.89c.03.27.07.55.03.82l.05-.4c-.01.06-.03.11-.05.17l.15-.36s-.03.07-.05.11c-.19.34-.26.78-.15,1.16.1.35.36.73.69.9.71.38,1.64.19,2.05-.54.45-.79.29-1.63.21-2.48l-.19-2.07c-.04-.41-.14-.76-.44-1.06-.26-.26-.69-.46-1.06-.44s-.79.14-1.06.44c-.25.28-.48.67-.44,1.06h0Z"/>
    <path class="cls-3" d="m10.45,148.72c.19.9.4,1.79.56,2.69l-.05-.4c0,.07.01.13,0,.2l.05-.4s-.02.07-.03.1c-.14.33-.02.86.15,1.16.18.31.54.61.9.69.38.09.81.07,1.16-.15l.3-.23c.19-.19.31-.41.39-.66.19-.45.06-.97-.04-1.43l-.16-.78-.33-1.58c-.07-.35-.38-.72-.69-.9-.32-.19-.8-.27-1.16-.15s-.71.34-.9.69c-.2.37-.24.74-.15,1.16h0Z"/>
    <path class="cls-3" d="m12.26,148.3c.31.5.58,1.02.82,1.56l-.15-.36c.29.68.5,1.39.65,2.12.07.35.39.72.69.9.32.19.8.27,1.16.15s.71-.34.9-.69c.2-.37.23-.74.15-1.16-.28-1.42-.84-2.81-1.61-4.04-.2-.33-.52-.59-.9-.69s-.84-.05-1.16.15c-.67.43-.98,1.34-.54,2.05h0Z"/>
    <path class="cls-3" d="m13.4,147.2c.29,1.28.53,2.56.72,3.86.05.35.4.73.69.9.32.19.8.27,1.16.15s.71-.34.9-.69l.15-.36c.07-.27.07-.53,0-.8-.19-1.3-.43-2.58-.72-3.86-.18-.77-1.1-1.29-1.85-1.05-.8.26-1.24,1.02-1.05,1.85h0Z"/>
    <path class="cls-3" d="m14.53,147.49c.07.08.13.16.2.25l-.23-.3c.34.45.61.93.84,1.44l-.15-.36c.24.57.4,1.15.48,1.76l-.05-.4c.06.48.07.95.03,1.43-.03.36.19.81.44,1.06s.69.46,1.06.44c.87-.04,1.43-.66,1.5-1.5.18-2.17-.61-4.29-1.98-5.94-.23-.28-.71-.44-1.06-.44-.37,0-.81.16-1.06.44s-.46.66-.44,1.06.17.74.44,1.06h0Z"/>
    <path class="cls-3" d="m16.34,147.3c.07.15.14.3.21.45l-.15-.36c.34.82.57,1.67.69,2.55l-.05-.4c.07.52.09,1.04.08,1.57-.02.79.71,1.54,1.5,1.5s1.48-.66,1.5-1.5c.05-1.85-.38-3.66-1.18-5.33-.16-.32-.56-.6-.9-.69-.36-.1-.84-.05-1.16.15-.73.47-.9,1.29-.54,2.05h0Z"/>
    <path class="cls-3" d="m17.51,147.36c.06.11.12.21.17.32.03.05.05.11.08.16-.09-.22-.11-.26-.05-.11.07.2.14.39.2.6s.1.41.14.62c.01.06.02.12.03.18.02.16.02.12-.02-.13,0,.1.02.22.03.32.07.9.01,1.81-.1,2.7-.05.35.2.82.44,1.06.26.26.69.46,1.06.44s.79-.14,1.06-.44c.29-.31.39-.64.44-1.06.27-2.1.17-4.29-.88-6.18-.38-.69-1.38-.97-2.05-.54s-.95,1.32-.54,2.05h0Z"/>
    <path class="cls-3" d="m19.24,146.95c.3,1.12.53,2.26.69,3.42l-.05-.4c.04.34.08.68.12,1.01.04.41.14.76.44,1.06.26.26.69.46,1.06.44s.79-.14,1.06-.44c.25-.28.48-.67.44-1.06-.16-1.63-.43-3.25-.86-4.83-.2-.76-1.08-1.3-1.85-1.05s-1.27,1.03-1.05,1.85h0Z"/>
    <path class="cls-3" d="m20.02,146.41c.07.25.12.5.15.76l-.05-.4c.03.23.05.46.05.69,0,.21.04.4.13.58.06.19.16.35.31.48.14.15.3.25.48.31.18.09.37.14.58.13l.4-.05c.25-.07.47-.2.66-.39l.23-.3c.14-.23.2-.49.2-.76,0-.38-.06-.74-.11-1.12-.03-.25-.08-.49-.15-.73-.05-.2-.14-.37-.27-.51-.11-.16-.25-.29-.42-.39-.17-.11-.36-.17-.56-.18-.2-.04-.4-.04-.6.03l-.36.15c-.23.13-.4.31-.54.54l-.15.36c-.07.27-.07.53,0,.8h0Z"/>
    <path class="cls-3" d="m16.24,142c-.08-.08-.15-.16-.22-.24-.05-.05-.09-.11-.14-.17.11.15.13.18.07.09-.06-.09-.13-.18-.19-.27-.03-.05-.06-.09-.09-.14-.15-.26-.11-.11.1.46l-.2.76.04-.06-.54.54s-.34.1-.16.07c.06-.01.12-.03.17-.05.12-.03.23-.06.35-.1.25-.07.5-.13.76-.19.23-.06.47-.11.7-.16.11-.02.23-.04.34-.07.17-.04-.12.02-.13.02.19-.02.03,0-.08-.03.25.05-.25-.14-.04,0,0,0-.23-.21-.13-.1.03.03.07.06.1.09.06.06.11.15.18.21,0,0-.2-.26-.09-.12.04.06.08.11.13.17.06.09.12.17.18.26.03.05.19.34.09.15-.13-.23.05.31,0,0-.04-.22-.01-.08-.02-.02,0-.06.08-.33.02-.13-.02.06-.08.17.01-.01.05-.1.09-.19.17-.26,0,0,.27-.17.14-.1-.14.08.18-.07.17-.07-.24.08.32-.01.06-.02.01,0,.31.08.18.02-.04-.02-.26-.07-.03,0,.27.08-.11-.12.11.06.18.15.04.03.01,0-.15-.22.15.25,0,.02-.05-.08-.09-.16-.14-.24-.12-.21.1.29-.01-.03-.23-.63-.45-1.23-1.05-1.61-.66-.42-1.42-.33-2.11-.04-1.02.43-1.9,1.19-2.42,2.18l2.74.36c-.07-.24-.14-.49-.2-.74-.03-.14-.06-.29-.09-.43-.07-.33,0,.28,0-.03,0-.14-.02-.28-.01-.43,0-.07,0-.14.01-.21l-.02.19s.08-.39.11-.41c-.09.19-.09.21-.02.06.02-.05.05-.09.08-.14.3-.52.59-1.01.77-1.59s.24-1.21.17-1.81l-2.26,1.3c.15.08.3.16.45.24.69.37,1.66.2,2.05-.54.37-.69.2-1.66-.54-2.05-.15-.08-.3-.16-.45-.24-.48-.25-1.04-.28-1.51,0-.42.24-.8.79-.74,1.3.02.14.03.28.03.42,0,.07,0,.14,0,.21-.02.17,0,.14.02-.08-.03.09-.04.22-.06.31-.02.09-.06.34-.13.4.09-.2.09-.22.02-.07-.03.06-.06.13-.1.19-.05.09-.11.18-.17.28-.19.31-.35.63-.48.97-.45,1.2-.15,2.52.19,3.7.17.58.65.99,1.25,1.07s1.22-.19,1.49-.72c.06-.11.11-.21.18-.31,0-.01.1-.12.1-.15,0,.13-.19.23-.06.09.08-.09.16-.18.25-.26,0,0,.13-.1.14-.12-.17.13-.21.16-.12.1.04-.03.07-.05.11-.08.1-.07.21-.13.31-.18.03-.01.14-.05.16-.08-.25.25-.23.05-.1.05l.09-.03-.21.02c-.23,0-.51-.12-.68-.29-.21-.2-.16-.22-.1-.1-.19-.35-.07-.16-.03-.04.23.66.52,1.33,1.06,1.8.69.59,1.63.88,2.52.61,1-.31,1.58-1.2,1.66-2.21.06-.77-.29-1.52-.74-2.12-.49-.66-1.01-1.27-1.84-1.5s-1.7.06-2.49.25c-1.01.24-2.37.46-2.54,1.71-.13,1,.68,1.91,1.32,2.59.54.57,1.58.59,2.12,0s.58-1.51,0-2.12h0Z"/>
    <path class="cls-3" d="m17.05,140.12c.12.01.23.02.35.04l-.4-.05c.61.08,1.23.21,1.8.43l-.36-.15s.05.03.08.05l-.3-.23.02.02-.23-.3s.03.04.03.06l-.15-.36v.04c0-.13-.03-.27-.04-.4,0,.04,0,.07,0,.11l.05-.4c-.01.06-.03.12-.05.19l.15-.36c-.03.06-.06.11-.1.17l.23-.3c-.05.06-.1.11-.16.16l.3-.23c-.05.04-.11.07-.17.1l.36-.15c-.07.03-.14.05-.22.06l.4-.05s-.06,0-.1,0c-.39,0-.79.17-1.06.44s-.46.69-.44,1.06.14.79.44,1.06.65.44,1.06.44.77-.11,1.13-.3.58-.45.81-.77c.19-.27.29-.58.33-.91.02-.11.03-.2.03-.31-.01-.29-.07-.54-.21-.79-.16-.28-.37-.49-.65-.65-.24-.14-.55-.23-.82-.31-.2-.06-.39-.11-.59-.15-.5-.11-1.01-.18-1.52-.23-.21,0-.4.04-.58.13-.19.06-.35.16-.48.31-.26.26-.46.69-.44,1.06s.14.79.44,1.06l.3.23c.23.14.49.2.76.2h0Z"/>
    <path class="cls-3" d="m14.17,140c.22.47.49.91.8,1.32.38.51.78.98,1.26,1.4.3.26.65.44,1.06.44.37,0,.81-.16,1.06-.44s.46-.66.44-1.06-.14-.8-.44-1.06c-.37-.32-.7-.68-1-1.06l.23.3c-.32-.42-.6-.87-.83-1.35-.15-.32-.56-.6-.9-.69-.36-.1-.84-.05-1.16.15s-.6.51-.69.9l-.05.4c0,.27.07.52.2.76h0Z"/>
    <path class="cls-3" d="m17.2,139.56l1.32,2.9c.15.32.57.6.9.69.36.1.84.05,1.16-.15s.6-.51.69-.9l.05-.4c0-.27-.07-.52-.2-.76l-1.32-2.9c-.15-.32-.57-.6-.9-.69-.36-.1-.84-.05-1.16.15s-.6.51-.69.9l-.05.4c0,.27.07.52.2.76h0Z"/>
    <path class="cls-3" d="m20.97,137.37c-.19-.26-.3-.42-.58-.59-.14-.08-.29-.15-.45-.2-.2-.05-.41-.07-.62-.08-.25,0-.5-.02-.75-.03-.51-.02-1.02-.04-1.52-.05-.38-.01-.8.18-1.06.44s-.46.69-.44,1.06.14.79.44,1.06.65.42,1.06.44.83.03,1.24.04.8,0,1.19.05l-.4-.05s.07.01.1.03l-.36-.15s.04.02.06.03l-.3-.23.02.02-.23-.3.02.03c.09.17.22.32.39.42.14.13.31.22.51.27.36.1.84.05,1.16-.15s.6-.51.69-.9.08-.83-.15-1.16h0Z"/>
    <rect class="cls-4" x="1" y="1" width="138" height="32" rx="5.76" ry="5.76"/>
  </g>
</svg>